<svg xmlns="http://www.w3.org/2000/svg" x="0px" y="0px"
width="90" height="90"
viewBox="0 0 128 128">
<circle cx="21" cy="24" r="12" fill="none"></circle><circle cx="21" cy="64" r="12" fill="none"></circle><path fill="#444b54" d="M114,27H64c-1.7,0-3-1.3-3-3s1.3-3,3-3h50c1.7,0,3,1.3,3,3S115.7,27,114,27z"></path><path fill="#444b54" d="M114,67H64c-1.7,0-3-1.3-3-3s1.3-3,3-3h50c1.7,0,3,1.3,3,3S115.7,67,114,67z"></path><path fill="#444b54" d="M114,107H64c-1.7,0-3-1.3-3-3s1.3-3,3-3h50c1.7,0,3,1.3,3,3S115.7,107,114,107z"></path><path fill="#444b54" d="M21,39c-8.3,0-15-6.7-15-15S12.7,9,21,9s15,6.7,15,15S29.3,39,21,39z M21,15c-5,0-9,4-9,9s4,9,9,9s9-4,9-9 S26,15,21,15z"></path><path fill="#444b54" d="M21,79c-8.3,0-15-6.7-15-15s6.7-15,15-15s15,6.7,15,15S29.3,79,21,79z M21,55c-5,0-9,4-9,9s4,9,9,9s9-4,9-9 S26,55,21,55z"></path><path fill="#444b54" d="M20.1,118.3c-0.8,0-1.6-0.3-2.1-0.9L6.9,106.3c-1.2-1.2-1.2-3.1,0-4.2c1.2-1.2,3.1-1.2,4.2,0l8.9,8.9 l20.2-23.5c1.1-1.3,3-1.4,4.2-0.3c1.3,1.1,1.4,3,0.3,4.2l-22.3,26c-0.5,0.6-1.3,1-2.2,1C20.2,118.3,20.2,118.3,20.1,118.3z"></path>
</svg>